<svg width="16" height="16" viewBox="0 0 16 16" fill="none" xmlns="http://www.w3.org/2000/svg">
<path d="M8.49389 5.17231L8.49567 5.16258C8.49766 5.15215 8.50133 5.13413 8.50713 5.10961C8.51878 5.06043 8.53886 4.98591 8.57098 4.89456C8.63562 4.71072 8.7464 4.4662 8.92929 4.22341C9.28077 3.75681 9.93049 3.25 11.1795 3.25C12.3251 3.25 13.0486 3.83702 13.4724 4.6098C13.9111 5.40963 14.0087 6.38281 13.869 7.02857C13.469 8.87576 11.9921 10.5007 10.5342 11.6942C9.81493 12.283 9.12077 12.7504 8.60627 13.0704C8.35384 13.2274 8.14554 13.3484 7.99991 13.4304C7.85432 13.3484 7.64609 13.2274 7.39374 13.0704C6.87935 12.7504 6.18536 12.2831 5.46623 11.6942C4.00869 10.5007 2.53203 8.87574 2.13198 7.02846L2.13192 7.02817C1.99169 6.38247 2.08877 5.40942 2.52723 4.60974C2.95082 3.8372 3.67453 3.25 4.8216 3.25C6.07054 3.25 6.71988 3.75679 7.07102 4.22327C7.25374 4.46602 7.36438 4.71051 7.42891 4.89433C7.46097 4.98567 7.48101 5.06018 7.49263 5.10936C7.49842 5.13388 7.50207 5.1519 7.50406 5.16232L7.50583 5.17205M8.49389 5.17231L8.49401 5.17155L8.49414 5.17072L8.49421 5.17023C8.49422 5.17018 8.49423 5.17013 8.49156 5.16968L7.50817 5.16942C7.5055 5.16987 7.5055 5.16992 7.50551 5.16996L7.50559 5.17045L7.50571 5.17128L7.50583 5.17205M8.49389 5.17231C8.49379 5.17293 8.49377 5.17303 8.49384 5.1726L8.49389 5.17231ZM7.50583 5.17205L7.50588 5.17233L7.50583 5.17205Z" stroke="#C1CBD9"/>
</svg>
