<svg width="16" height="16" viewBox="0 0 16 16" fill="none" xmlns="http://www.w3.org/2000/svg">
<g clip-path="url(#clip0_438_1458)">
<path d="M8 0C5.87827 0 3.84344 0.842855 2.34315 2.34315C0.842855 3.84344 0 5.87827 0 8C0 10.1217 0.842855 12.1566 2.34315 13.6569C3.84344 15.1571 5.87827 16 8 16C10.1217 16 12.1566 15.1571 13.6569 13.6569C15.1571 12.1566 16 10.1217 16 8C16 5.87827 15.1571 3.84344 13.6569 2.34315C12.1566 0.842855 10.1217 0 8 0V0Z" fill="url(#paint0_linear_438_1458)"/>
<g filter="url(#filter0_i_438_1458)">
<path d="M8 0C5.87827 0 3.84344 0.842855 2.34315 2.34315C0.842855 3.84344 0 5.87827 0 8C0 10.1217 0.842855 12.1566 2.34315 13.6569C3.84344 15.1571 5.87827 16 8 16C10.1217 16 12.1566 15.1571 13.6569 13.6569C15.1571 12.1566 16 10.1217 16 8C16 5.87827 15.1571 3.84344 13.6569 2.34315C12.1566 0.842855 10.1217 0 8 0V0Z" fill="#FF007A"/>
</g>
<path d="M10.4732 4C8.27523 4 8.00023 5.824 8.00023 5.824C8.00023 5.824 7.72623 4 5.52823 4C3.41423 4 2.79823 6.222 3.05623 7.41C3.73623 10.55 8.00023 12.75 8.00023 12.75C8.00023 12.75 12.2652 10.55 12.9452 7.41C13.2022 6.222 12.5852 4 10.4732 4Z" fill="white"/>
</g>
<defs>
<filter id="filter0_i_438_1458" x="0" y="-1" width="16" height="17" filterUnits="userSpaceOnUse" color-interpolation-filters="sRGB">
<feFlood flood-opacity="0" result="BackgroundImageFix"/>
<feBlend mode="normal" in="SourceGraphic" in2="BackgroundImageFix" result="shape"/>
<feColorMatrix in="SourceAlpha" type="matrix" values="0 0 0 0 0 0 0 0 0 0 0 0 0 0 0 0 0 0 127 0" result="hardAlpha"/>
<feOffset dy="-1"/>
<feGaussianBlur stdDeviation="1"/>
<feComposite in2="hardAlpha" operator="arithmetic" k2="-1" k3="1"/>
<feColorMatrix type="matrix" values="0 0 0 0 0.710145 0 0 0 0 0 0 0 0 0 0.11778 0 0 0 0.349787 0"/>
<feBlend mode="normal" in2="shape" result="effect1_innerShadow_438_1458"/>
</filter>
<linearGradient id="paint0_linear_438_1458" x1="800" y1="0" x2="800" y2="1600" gradientUnits="userSpaceOnUse">
<stop stop-color="#FF6680"/>
<stop offset="1" stop-color="#E61739"/>
</linearGradient>
<clipPath id="clip0_438_1458">
<rect width="16" height="16" fill="white"/>
</clipPath>
</defs>
</svg>
