<svg width="28" height="42" viewBox="0 0 28 42" fill="none" xmlns="http://www.w3.org/2000/svg">
<g clip-path="url(#clip0_438_1229)">
<path d="M13.8294 0H14.1255C14.6824 0.0697266 15.1649 0.555352 15.1953 1.13777C15.2121 1.93266 15.1953 2.72918 15.2025 3.52488C15.2017 3.84152 15.2273 4.17703 15.0801 4.46742C14.844 4.9998 14.2023 5.29758 13.6582 5.11301C13.1636 4.96863 12.7988 4.46988 12.8028 3.94242C12.8028 3.00891 12.794 2.07539 12.8068 1.14188C12.8332 0.570938 13.2949 0.103359 13.8294 0Z" fill="#1B2D4F"/>
<path d="M6.09652 2.07538C6.57423 1.97448 7.08874 2.21483 7.3448 2.63729C7.7697 3.29682 8.2042 3.95143 8.6251 4.61342C8.96917 5.16878 8.77313 5.97678 8.2178 6.30409C7.69768 6.63467 6.95271 6.47061 6.61264 5.94807C6.16373 5.25409 5.70283 4.56667 5.26513 3.8653C4.87144 3.17624 5.32274 2.19104 6.09652 2.07538Z" fill="#1B2D4F"/>
<path d="M21.46 2.07539C22.1082 1.92856 22.7947 2.43633 22.8683 3.11145C22.9427 3.53965 22.7275 3.93422 22.4866 4.26481C22.1098 4.83739 21.7441 5.41817 21.3616 5.98664C21.0111 6.48375 20.2869 6.62567 19.7804 6.30082C19.2275 5.97188 19.0331 5.16387 19.3795 4.61098C19.8004 3.94981 20.2333 3.29684 20.659 2.63813C20.8359 2.34856 21.1311 2.13774 21.46 2.07539Z" fill="#1B2D4F"/>
<path d="M0.973776 6.66915C1.48589 6.5502 1.92919 6.88653 2.36689 7.09735C2.78539 7.33114 3.30871 7.48043 3.53436 7.95375C3.86084 8.54192 3.59918 9.36551 2.99344 9.63868C2.65176 9.80848 2.23406 9.7929 1.89959 9.60997C1.47549 9.3893 1.04819 9.17684 0.625697 8.95372C0.170393 8.7109 -0.0832654 8.14161 0.0247593 7.62809C0.110379 7.14903 0.50967 6.75774 0.973776 6.66915Z" fill="#1B2D4F"/>
<path d="M26.5083 7.34016C27.006 7.20563 27.5733 7.44105 27.8326 7.89797C28.0911 8.33109 28.0463 8.92582 27.7262 9.31301C27.4757 9.62965 27.0804 9.74859 26.7436 9.93891C26.3035 10.1423 25.8738 10.4893 25.3616 10.4032C24.7039 10.3277 24.2014 9.62391 24.3478 8.95699C24.4222 8.51402 24.7567 8.16211 25.156 7.99969C25.6097 7.78641 26.0378 7.5116 26.5083 7.34016Z" fill="#1B2D4F"/>
<path d="M13.0677 8.95862C13.5766 8.57062 14.296 8.50499 14.8649 8.79128C15.465 9.07757 15.8723 9.73464 15.8699 10.4139C15.8723 12.5426 15.8723 14.6713 15.8699 16.8C14.6921 16.8 13.5142 16.8008 12.3363 16.7992C12.3363 14.6713 12.3339 12.5434 12.3371 10.4155C12.3339 9.8462 12.6172 9.28921 13.0677 8.95862Z" fill="#1B2D4F"/>
<path d="M7.63712 10.2186C8.14683 10.0521 8.72857 10.1399 9.16787 10.4549C9.64958 10.7879 9.94484 11.3769 9.93444 11.9725C9.93524 13.997 9.93684 16.0215 9.93364 18.046C9.93444 18.681 9.57996 19.297 9.03984 19.6063C8.49091 19.9344 7.76755 19.9205 7.23302 19.5677C6.72811 19.2494 6.40003 18.6588 6.40083 18.0501C6.39923 15.9985 6.39683 13.9461 6.40243 11.8937C6.40964 11.1407 6.93616 10.4368 7.63712 10.2186Z" fill="#1B2D4F"/>
<path d="M18.8373 10.623C19.3246 10.1399 20.0952 10.0004 20.7177 10.2744C21.3747 10.5443 21.8244 11.2506 21.8068 11.9757C21.8084 13.5836 21.8068 15.1905 21.8076 16.7984C20.6289 16.8008 19.451 16.8 18.2723 16.7992C18.2723 15.193 18.2715 13.5868 18.2723 11.9807C18.2619 11.4729 18.4708 10.9659 18.8373 10.623Z" fill="#1B2D4F"/>
<path d="M1.63416 12.5237C2.07346 12.3613 2.57437 12.3875 2.99447 12.5951C3.585 12.8789 3.9907 13.522 3.9963 14.1914C4.0011 15.476 3.9995 16.7606 3.9971 18.0452C3.9987 18.6941 3.62821 19.3241 3.06809 19.626C2.51196 19.9418 1.78859 19.9106 1.26207 19.5448C0.775562 19.2224 0.463491 18.6432 0.464291 18.0477C0.462691 16.7631 0.46189 15.4785 0.465091 14.1947C0.466691 13.4589 0.959604 12.7649 1.63416 12.5237Z" fill="#1B2D4F"/>
<path d="M12.3364 19.2618C15.8532 19.2593 19.37 19.2609 22.8868 19.2609C23.4101 19.2568 23.9398 19.3528 24.4119 19.5907C25.5082 20.1206 26.2579 21.3175 26.2571 22.5627C26.2627 24.5027 26.2579 26.4436 26.2595 28.3845C26.2539 29.1785 26.3076 29.9898 26.0891 30.7625C25.7746 31.984 25.0001 32.9971 24.2463 33.9675C23.3717 35.0856 22.4667 36.2398 22.057 37.6343C21.8209 38.3824 21.7913 39.174 21.8073 39.9525C21.7897 40.407 21.8825 40.9008 21.6489 41.315C21.4584 41.6743 21.1024 41.9098 20.7191 42H3.82241C3.22948 41.9172 2.71736 41.3872 2.69416 40.7663C2.67495 40.0575 2.71096 39.3488 2.66615 38.6408C2.60374 37.6122 2.36848 36.6007 2.0252 35.6336C1.51629 34.2177 0.869739 32.8371 0.625683 31.3376C0.507256 30.6871 0.460846 30.0251 0.463246 29.3647C0.463246 26.8775 0.462446 24.3912 0.463246 21.904C1.06978 22.1837 1.73714 22.3322 2.40369 22.2994C3.44953 22.2633 4.46176 21.7891 5.19953 21.0328C5.73245 21.5709 6.395 21.9786 7.12237 22.1665C8.1226 22.4405 9.21245 22.2953 10.1279 21.8064C10.5768 23.4052 11.8378 24.7324 13.3926 25.2156C14.3768 25.5454 15.4235 25.4215 16.4405 25.4461C15.79 26.3616 15.3643 27.4329 15.1538 28.5411C15.0426 29.0563 15.3082 29.6166 15.7603 29.8602C16.2236 30.1268 16.851 30.0169 17.2063 29.6133C17.5424 29.2564 17.5335 28.729 17.6968 28.2885C18.1089 26.9661 19.1035 25.7947 20.4182 25.3772C20.9663 25.2197 21.3296 24.6127 21.2384 24.0393C21.168 23.4634 20.6503 22.9958 20.0853 22.9884C18.3249 22.9778 16.5637 22.9934 14.8025 22.9811C13.8183 22.9753 12.8821 22.3125 12.5204 21.3757C12.2435 20.7072 12.3596 19.9672 12.3364 19.2618Z" fill="#1B2D4F"/>
</g>
<defs>
<clipPath id="clip0_438_1229">
<rect width="28" height="42" fill="white"/>
</clipPath>
</defs>
</svg>
