<svg width="40" height="40" viewBox="0 0 40 40" fill="none" xmlns="http://www.w3.org/2000/svg">
<g clip-path="url(#clip0_438_1308)">
<path d="M0.180837 0.302622C0.355007 0.0693128 0.658347 -0.0048461 0.936686 0.000986628C4.74593 0.00181987 8.55518 0.000986628 12.3653 0.00181987C12.6411 -0.00401285 12.9411 0.0759788 13.1111 0.309288C13.3636 0.618422 13.3128 1.12004 13.0019 1.37168C12.8278 1.52749 12.5861 1.56249 12.3611 1.56416C8.76268 1.56499 5.16427 1.56416 1.56587 1.56416C1.5642 5.17545 1.5667 8.78757 1.5642 12.3989C1.58837 12.7888 1.33169 13.1938 0.930019 13.2571C0.463343 13.3654 -0.0100002 12.9546 0.00833351 12.4805C-0.00666681 8.67592 0.00833351 4.87048 0 1.06588C0.00250005 0.805069 0.00083335 0.5126 0.180837 0.302622Z" fill="#C1CBD9"/>
<path d="M26.6097 0.230001C26.803 0.0316883 27.0947 -0.00330804 27.358 2.49498e-05C30.2197 0.00252469 36.1649 0.00169144 39.0266 2.49498e-05C39.2883 -0.00330804 39.5774 0.0391875 39.7658 0.24C39.9658 0.425814 40.0016 0.713284 39.9991 0.972424C39.9958 4.78203 40.0008 8.59163 39.9974 12.4004C40.03 12.827 39.7083 13.2536 39.2666 13.2703C38.7899 13.3161 38.3982 12.8654 38.4374 12.4046C38.4324 8.79161 38.4366 5.17782 38.4358 1.56403C35.7399 1.5632 29.9614 1.5657 27.2655 1.5632C26.9855 1.56986 26.6855 1.47404 26.523 1.2324C26.3005 0.935761 26.3405 0.484141 26.6097 0.230001Z" fill="#C1CBD9"/>
<path d="M19.5438 11.2605C22.6838 11.2105 25.8356 11.6805 28.8156 12.6787C32.9199 14.0285 36.6916 16.3675 39.7409 19.4263C40.06 19.7146 40.075 20.2554 39.76 20.552C37.5583 22.766 34.9799 24.6058 32.1674 25.9623C28.0998 27.9363 23.5439 28.892 19.0254 28.722C12.2778 28.522 5.64516 25.744 0.77589 21.0678C0.474217 20.752 0.00170674 20.4804 0.0108736 19.9863C0.00670684 19.6063 0.325047 19.3555 0.575052 19.1197C2.7051 17.0557 5.16015 15.3242 7.83354 14.0385C11.4728 12.2737 15.4995 11.3205 19.5438 11.2605ZM19.0688 12.8787C16.9687 13.1411 15.0245 14.3977 13.9128 16.1975C13.0345 17.584 12.6678 19.2788 12.8778 20.9062C13.0861 22.6085 13.9428 24.2175 15.2229 25.3565C16.4254 26.4339 17.9996 27.0922 19.6146 27.1697C21.0755 27.253 22.5588 26.8739 23.7972 26.094C25.3414 25.1407 26.4931 23.5776 26.9506 21.8227C27.3281 20.3896 27.2489 18.8389 26.7189 17.454C26.1489 15.9492 25.0581 14.6485 23.6722 13.8286C22.3038 13.0037 20.653 12.6687 19.0688 12.8787ZM5.27682 17.3165C4.07346 18.1048 2.97094 19.0339 1.90675 19.9988C3.35511 21.3345 4.92348 22.5485 6.62768 23.5409C8.97189 24.9432 11.5494 25.9331 14.207 26.5489C12.7736 25.2615 11.7553 23.5101 11.4111 21.6094C11.0961 19.9496 11.2786 18.1981 11.9345 16.6408C12.432 15.4176 13.2353 14.336 14.2087 13.4494C11.0294 14.1819 7.96937 15.4684 5.27682 17.3165ZM25.7981 13.4503C26.3589 13.9777 26.8889 14.546 27.3039 15.1984C28.8565 17.5132 29.1807 20.5929 28.1431 23.1801C27.6498 24.4741 26.8181 25.6215 25.7964 26.5497C28.3856 25.9473 30.9024 24.9982 33.1941 23.6459C34.9708 22.636 36.5975 21.3811 38.0992 19.9996C37.4708 19.4555 36.8716 18.8747 36.1983 18.3839C33.1599 15.9842 29.5698 14.3094 25.7981 13.4503Z" fill="#C1CBD9"/>
<path d="M19.1435 16.1983C20.031 16.0067 20.9902 16.1133 21.7936 16.5458C22.7561 17.0382 23.4919 17.9523 23.7653 18.9989C24.0269 19.9729 23.8928 21.0528 23.3836 21.9261C22.8861 22.8093 22.0252 23.4834 21.0461 23.7484C20.051 24.0275 18.941 23.8942 18.051 23.3651C17.2668 22.916 16.6526 22.1802 16.3443 21.332C15.9585 20.2779 16.0518 19.0539 16.6176 18.0815C17.1443 17.1341 18.0893 16.4408 19.1435 16.1983ZM19.5585 17.7048C18.4385 17.9023 17.5752 19.0047 17.671 20.1412C17.7143 21.287 18.7202 22.2902 19.866 22.331C21.0152 22.426 22.1277 21.5394 22.3044 20.4029C22.4511 19.6071 22.1436 18.7506 21.5252 18.2289C20.9944 17.7648 20.2485 17.5698 19.5585 17.7048Z" fill="#C1CBD9"/>
<path d="M0.204931 26.9881C0.464936 26.6798 0.971613 26.6414 1.27662 26.9047C1.49996 27.0772 1.56913 27.3722 1.56496 27.6421C1.56496 31.2393 1.56496 34.8372 1.56579 38.4344C5.19253 38.4377 8.81928 38.4302 12.4452 38.4385C12.8444 38.421 13.2377 38.7227 13.2677 39.1318C13.3377 39.6034 12.901 40.0309 12.4335 39.995C8.65677 40.0034 4.88003 39.9925 1.10412 40C0.820777 39.9984 0.499937 40.005 0.278266 39.8C0.0590943 39.6234 -0.00174029 39.3318 0.00159311 39.0643C0.00242646 35.2572 0.00242646 31.4509 0.00242646 27.6438C0.00492651 27.4122 0.0390939 27.163 0.204931 26.9881Z" fill="#C1CBD9"/>
<path d="M38.4466 27.1713C38.6149 26.778 39.1383 26.608 39.5091 26.8189C39.8124 26.9713 39.9399 27.323 39.9258 27.6463C39.9233 31.48 39.9291 35.3138 39.9224 39.1476C39.9491 39.5992 39.5658 40.015 39.1066 39.9933C35.3024 40.005 31.4964 39.9917 27.6914 39.9992C27.4314 39.9975 27.1422 39.9941 26.9355 39.8125C26.6055 39.5567 26.5588 39.0243 26.8388 38.7151C27.0222 38.4851 27.3289 38.4276 27.6072 38.4343C31.1923 38.436 34.7765 38.4351 38.3616 38.4343C38.3624 35.0038 38.3624 31.5742 38.3616 28.1437C38.3724 27.8196 38.3174 27.478 38.4466 27.1713Z" fill="#C1CBD9"/>
</g>
<defs>
<clipPath id="clip0_438_1308">
<rect width="40" height="40" fill="white"/>
</clipPath>
</defs>
</svg>
